{
  "title": "Run All Night (2015) CAMRip [RUS]",
  "uid": 11820999,
  "size": 786747976,
  "categoryP": "video",
  "categoryS": "movies",
  "magnet": "?xt=urn:btih:eadad156b89e16906b84f70c151156d8dc4b3d4f&amp;dn=Run+All+Night+%282015%29+CAMRip+%5BRUS%5D&amp;tr=udp%3A%2F%2Ftracker.openbittorrent.com%3A80&amp;tr=udp%3A%2F%2Fopen.demonii.com%3A1337&amp;tr=udp%3A%2F%2Ftracker.coppersurfer.tk%3A6969&amp;tr=udp%3A%2F%2Fexodus.desync.com%3A6969",
  "seeders": 38,
  "leechers": 0,
  "uploader": "nbdjod",
  "files": 1,
  "time": 1429260415,
  "description": "Run All Night (2015) CAMRip [RUS]\n\n\nAudio language - RUSSIAN!!!\n\n\nStoryline:\nProfessional Brooklyn hitman Jimmy Conlon is more commonly known as THE GRAVEDIGGER. Jimmy was a mob hit-man, who was best friends with his boss Sean Maguire. But when Jimmy's son, Michael, is marked for death by the mob, Jimmy must go up against Sean to protect Michael at all costs. Together, he and Michael must avoid corrupt cops, contract killers and the mob to survive the night.\n\n\nReview by pat-46946:\nI'm just your average movie goer who sees one newly released film a week. It is a lunch outing with my best friend. We have been doing this for a couple of years. This movie, RUN ALL NIGHT kept me on the edge of my seat from start to finish. The script was average, the editing very good, the camera work great, the music terrific, and the acting was phenomenal! It is the only film in two years I want to see again. Go,you won't be disappointed. There is a great car chase that can hold its own with the best. It's a gangster movie, so expect lots of shoot-em-up scenes. Gory as they were, they were consistent with all the scenes in the film, so after a a short time they became inconsequential and I focused on the amazing acting.\n\nMI:\nGeneral\nFormat                                   : AVI\nFormat/Info                              : Audio Video Interleave\nFile size                                : 750 MiB\nDuration                                 : 1h 48mn\nOverall bit rate                         : 967 Kbps\nMovie name                               : Rustorrents.Org &amp; Uniongang.Net\nWriting library                          : VirtualDub build 35491/release\n\nVideo\nID                                       : 0\nFormat                                   : MPEG-4 Visual\nFormat profile                           : Advanced Simple@L5\nFormat settings, BVOP                    : 2\nFormat settings, QPel                    : No\nFormat settings, GMC                     : No warppoints\nFormat settings, Matrix                  : Default (H.263)\nMuxing mode                              : Packed bitstream\nCodec ID                                 : XVID\nCodec ID/Hint                            : XviD\nDuration                                 : 1h 48mn\nBit rate                                 : 827 Kbps\nWidth                                    : 656 pixels\nHeight                                   : 288 pixels\nDisplay aspect ratio                     : 2.25:1\nFrame rate                               : 29.970 fps\nColor space                              : YUV\nChroma subsampling                       : 4:2:0\nBit depth                                : 8 bits\nScan type                                : Progressive\nCompression mode                         : Lossy\nBits/(Pixel*Frame)                       : 0.146\nStream size                              : 642 MiB (86%)\nWriting library                          : XviD 73\n\nAudio\nID                                       : 1\nFormat                                   : MPEG Audio\nFormat version                           : Version 1\nFormat profile                           : Layer 3\nMode                                     : Joint stereo\nMode extension                           : MS Stereo\nCodec ID                                 : 55\nCodec ID/Hint                            : MP3\nDuration                                 : 1h 48mn\nBit rate mode                            : Constant\nBit rate                                 : 128 Kbps\nChannel(s)                               : 2 channels\nSampling rate                            : 48.0 KHz\nCompression mode                         : Lossy\nStream size                              : 99.3 MiB (13%)\nAlignment                                : Split accross interleaves\nInterleave, duration                     : 33 ms (1.00 video frame)\nInterleave, preload duration             : 500 ms\n\n\n\n\nSample:  &lt;a href=&quot;\nhttp://rusfolder.com/43472857&quot; rel=&quot;nofollow&quot; target=&quot;_NEW&quot;&gt;\nhttp://rusfolder.com/43472857&lt;/a&gt;\n\n\nScreens:  &lt;a href=&quot;\nhttp://i4.imageban.ru/out/2015/04/16/72925bebc0274d066888034dc3049e8f.jpg&quot; rel=&quot;nofollow&quot; target=&quot;_NEW&quot;&gt;\nhttp://i4.imageban.ru/out/2015/04/16/72925bebc0274d066888034dc3049e8f.jpg&lt;/a&gt; &lt;a href=&quot;\nhttp://i1.imageban.ru/out/2015/04/16/403dc4a120a10f6b00e82641b7b00db3.jpg&quot; rel=&quot;nofollow&quot; target=&quot;_NEW&quot;&gt;\nhttp://i1.imageban.ru/out/2015/04/16/403dc4a120a10f6b00e82641b7b00db3.jpg&lt;/a&gt; &lt;a href=&quot;\nhttp://i6.imageban.ru/out/2015/04/16/1c9c14dadaa763655fe47f3cc1158d8b.jpg&quot; rel=&quot;nofollow&quot; target=&quot;_NEW&quot;&gt;\nhttp://i6.imageban.ru/out/2015/04/16/1c9c14dadaa763655fe47f3cc1158d8b.jpg&lt;/a&gt; &lt;a href=&quot;\nhttp://i4.imageban.ru/out/2015/04/16/782aeb9d55702716ba9c6d1e8f59d49d.jpg&quot; rel=&quot;nofollow&quot; target=&quot;_NEW&quot;&gt;\nhttp://i4.imageban.ru/out/2015/04/16/782aeb9d55702716ba9c6d1e8f59d49d.jpg&lt;/a&gt;",
  "parsed": {
    "xt": "urn:btih:eadad156b89e16906b84f70c151156d8dc4b3d4f",
    "dn": "Run All Night (2015) CAMRip [RUS]",
    "tr": [
      "udp://exodus.desync.com:6969",
      "udp://open.demonii.com:1337",
      "udp://tracker.coppersurfer.tk:6969",
      "udp://tracker.openbittorrent.com:80"
    ],
    "infoHash": "eadad156b89e16906b84f70c151156d8dc4b3d4f",
    "infoHashBuffer": {
      "type": "Buffer",
      "data": [
        234,
        218,
        209,
        86,
        184,
        158,
        22,
        144,
        107,
        132,
        247,
        12,
        21,
        17,
        86,
        216,
        220,
        75,
        61,
        79
      ]
    },
    "name": "Run All Night (2015) CAMRip [RUS]",
    "announce": [
      "udp://exodus.desync.com:6969",
      "udp://open.demonii.com:1337",
      "udp://tracker.coppersurfer.tk:6969",
      "udp://tracker.openbittorrent.com:80"
    ],
    "urlList": []
  },
  "previous": 38,
  "peers": 1,
  "last_updated": "2016-12-25T17:10:08.659Z"
}